<?xml version="1.0" encoding="UTF-8"?>
<svg width="752pt" height="752pt" version="1.1" viewBox="0 0 752 752" xmlns="http://www.w3.org/2000/svg">
 <path d="m562.82 233.28c-1.5391-0.70312-3.3477-0.44922-4.6328 0.65234l-39.699 34.035-22.52 5.8125-0.003906-77.004c-0.003906-5.5859-4.5312-10.113-10.117-10.117h-289.07c-5.5859 0.003906-10.113 4.5312-10.117 10.117v312.19c0.003906 5.5859 4.5312 10.113 10.117 10.117h36.125v41.922c0 1.5234 0.80078 2.9336 2.1094 3.7188 1.3047 0.78125 2.9258 0.82422 4.2695 0.10938l85.762-45.75h160.8c5.5859-0.003907 10.113-4.5312 10.117-10.117v-53.906l22.52 5.8125 39.699 34.035h0.003906c1.2852 1.1055 3.0938 1.3555 4.6328 0.64844 1.5391-0.70703 2.5234-2.2461 2.5234-3.9414v-254.39c0-1.6914-0.98438-3.2305-2.5234-3.9414zm-367.49-36.508v0.003906c0-0.79688 0.64844-1.4453 1.4453-1.4453h289.07c0.80078 0 1.4453 0.64844 1.4453 1.4453v47.695h-291.96zm291.96 312.2c0 0.79688-0.64453 1.4453-1.4453 1.4453h-161.89c-0.71094 0-1.4102 0.17578-2.0391 0.50781l-80.348 42.859v-39.031c0-2.3945-1.9414-4.3359-4.3359-4.3359h-40.461c-0.79688 0-1.4453-0.64844-1.4453-1.4453v-255.82h291.96v22.871l-146.53 37.816h-74.617c-5.7461 0.007813-11.258 2.293-15.324 6.3594-4.0625 4.0625-6.3477 9.5742-6.3555 15.324v57.812c0.007812 5.75 2.293 11.258 6.3555 15.324 4.0664 4.0664 9.5781 6.3516 15.324 6.3555h24.57v70.828c0.003906 2.3984 1.9414 4.3359 4.3398 4.3398 13.41-0.015625 26.27-5.3516 35.754-14.836 9.4844-9.4805 14.816-22.34 14.832-35.754v-23.316l141.65 36.559zm-187.9-93.961h37.578v24.578c-0.011719 10.363-3.8594 20.355-10.797 28.051-6.9375 7.6992-16.477 12.559-26.781 13.645zm-4.3359-8.6719h-28.91c-7.1797-0.007813-13-5.8281-13.008-13.008v-57.812c0.007812-7.1836 5.8281-13 13.008-13.008h70.816v83.832zm221.15 44.992-170.56-44.02v-85.773l170.56-44.02zm40.469 30.859-31.797-27.258v-181.02l31.797-27.258zm-152.21-264.48c0.61328 1.4023 0.61328 2.9922 0 4.3945-0.27734 0.70312-0.71484 1.3359-1.2734 1.8516-1.0547 1.1094-2.5156 1.7344-4.0469 1.7305-0.77344-0.007812-1.5391-0.16406-2.25-0.46094-0.70703-0.28125-1.3398-0.71484-1.8555-1.2695-0.53906-0.53125-0.96875-1.1602-1.2695-1.8516-0.54297-1.4141-0.54297-2.9805 0-4.3945 0.30859-0.70703 0.73828-1.3516 1.2695-1.9062 2.2969-2.1406 5.8555-2.1406 8.1523 0 0.57422 0.52344 1.0078 1.1758 1.2734 1.9062zm32.258 2.1953c0 2.3398-1.4062 4.4492-3.5703 5.3438-2.1602 0.89453-4.6445 0.39844-6.3008-1.2539-1.6523-1.6523-2.1445-4.1406-1.25-6.3008 0.89453-2.1602 3-3.5703 5.3398-3.5703 3.1914 0.007812 5.7734 2.5938 5.7812 5.7812zm31.336-2.1953h0.003907c0.61328 1.4023 0.61328 2.9922 0 4.3945-0.62109 1.3867-1.7305 2.5-3.1211 3.1211-0.69531 0.29688-1.4453 0.45313-2.2031 0.46094-0.76953-0.007812-1.5352-0.16406-2.25-0.46094-0.70312-0.28125-1.3359-0.71484-1.8516-1.2695-0.53906-0.53125-0.97266-1.1602-1.2734-1.8516-0.53906-1.4141-0.53906-2.9805 0-4.3945 0.30859-0.70703 0.73828-1.3516 1.2734-1.9062 0.54297-0.52344 1.1719-0.94922 1.8516-1.2734 1.4297-0.57812 3.0273-0.57812 4.4531 0 0.67969 0.32422 1.3047 0.75 1.8477 1.2734 0.57031 0.52344 1.0078 1.1758 1.2734 1.9062zm-168.66 123.59v46.25c0.007813 1.1562-0.44531 2.2695-1.2617 3.0898-0.8125 0.82031-1.9219 1.2812-3.0742 1.2812-1.1562 0-2.2656-0.46094-3.0781-1.2812-0.81641-0.82031-1.2695-1.9336-1.2617-3.0898v-46.25c-0.007813-1.1562 0.44531-2.2695 1.2617-3.0898 0.8125-0.82031 1.9219-1.2812 3.0781-1.2812 1.1523 0 2.2617 0.46094 3.0742 1.2812 0.81641 0.82031 1.2695 1.9336 1.2617 3.0898zm23.125 0v46.25c0.007813 1.1562-0.44531 2.2695-1.2578 3.0898-0.81641 0.82031-1.9219 1.2812-3.0781 1.2812s-2.2656-0.46094-3.0781-1.2812c-0.81641-0.82031-1.2695-1.9336-1.2578-3.0898v-46.25c-0.011719-1.1562 0.44141-2.2695 1.2578-3.0898 0.8125-0.82031 1.9219-1.2812 3.0781-1.2812s2.2617 0.46094 3.0781 1.2812c0.8125 0.82031 1.2656 1.9336 1.2578 3.0898zm-46.258 0v46.25c0 2.3945-1.9414 4.3359-4.3359 4.3359s-4.3359-1.9414-4.3359-4.3359v-46.25c0-2.3945 1.9414-4.3359 4.3359-4.3359s4.3359 1.9414 4.3359 4.3359zm40.691-65.027h-73.918c-1.1562 0.011719-2.2695-0.44141-3.0898-1.2578-0.82031-0.8125-1.2812-1.9219-1.2812-3.0781 0-1.1523 0.46094-2.2617 1.2812-3.0781 0.82031-0.8125 1.9336-1.2656 3.0898-1.2578h73.918c1.1562-0.007812 2.2656 0.44531 3.0859 1.2578 0.82031 0.81641 1.2812 1.9258 1.2812 3.0781 0 1.1562-0.46094 2.2656-1.2812 3.0781-0.82031 0.81641-1.9297 1.2695-3.0859 1.2578zm18.789-4.3359c0-2.3945 1.9414-4.332 4.3359-4.3359h12.801c2.3828 0.019532 4.3047 1.957 4.3047 4.3359 0 2.3828-1.9219 4.3203-4.3047 4.3359h-12.801c-2.3945 0-4.3359-1.9414-4.3359-4.3359zm18.598 208.16c0-2.3945 1.9414-4.3359 4.3359-4.3359h68.133c1.1562-0.007812 2.2695 0.44531 3.0898 1.2578 0.81641 0.81641 1.2773 1.9219 1.2773 3.0781s-0.46094 2.2617-1.2773 3.0781c-0.82031 0.8125-1.9336 1.2656-3.0898 1.2578h-68.133c-2.3945 0-4.3359-1.9414-4.3359-4.3359zm91.262 0c0-2.3945 1.9414-4.3359 4.3359-4.3359h12.805c1.1562-0.007812 2.2656 0.44531 3.0859 1.2578 0.82031 0.81641 1.2812 1.9219 1.2812 3.0781s-0.46094 2.2617-1.2812 3.0781c-0.82031 0.8125-1.9297 1.2656-3.0859 1.2578h-12.805c-2.3945 0-4.3359-1.9414-4.3359-4.3359z"/>
</svg>
