<?xml version="1.0" encoding="UTF-8"?>
<svg width="752pt" height="752pt" version="1.1" viewBox="0 0 752 752" xmlns="http://www.w3.org/2000/svg">
 <defs>
  <clipPath id="a">
   <path d="m139.21 139.21h473.58v473.58h-473.58z"/>
  </clipPath>
 </defs>
 <g clip-path="url(#a)">
  <path d="m139.21 139.21h473.58v473.58h-473.58zm18.941 18.941h435.7v435.7h-435.7z" fill-rule="evenodd"/>
 </g>
 <path d="m329.79 430.88 11.754 3.7227c-1.8047 6.5625-4.8008 11.434-8.9961 14.625-4.1836 3.1758-9.5156 4.7734-15.965 4.7734-7.9766 0-14.539-2.7305-19.676-8.1719-5.1367-5.457-7.7109-12.918-7.7109-22.363 0-10.004 2.5898-17.773 7.7539-23.312 5.1641-5.5273 11.949-8.2969 20.375-8.2969 7.3477 0 13.32 2.168 17.91 6.5195 2.7422 2.5625 4.7852 6.2539 6.1562 11.07l-12.02 2.8672c-0.69922-3.1211-2.1836-5.582-4.4492-7.3867-2.2539-1.8047-4.9961-2.6992-8.2148-2.6992-4.4492 0-8.0742 1.5938-10.844 4.8008-2.7695 3.1914-4.1562 8.3672-4.1562 15.531 0 7.5977 1.3555 13.016 4.1016 16.234 2.7305 3.2344 6.2812 4.8438 10.648 4.8438 3.2344 0 6.0039-1.0234 8.3281-3.0781 2.3242-2.043 3.9883-5.2773 5.0078-9.668zm60.633 0 11.754 3.7227c-1.8047 6.5625-4.8008 11.434-8.9961 14.625-4.1836 3.1758-9.5156 4.7734-15.965 4.7734-7.9766 0-14.539-2.7305-19.676-8.1719-5.1367-5.457-7.7109-12.918-7.7109-22.363 0-10.004 2.5898-17.773 7.7539-23.312 5.1641-5.5273 11.949-8.2969 20.375-8.2969 7.3477 0 13.32 2.168 17.91 6.5195 2.7422 2.5625 4.7852 6.2539 6.1562 11.07l-12.02 2.8672c-0.69922-3.1211-2.1836-5.582-4.4492-7.3867-2.2539-1.8047-4.9961-2.6992-8.2148-2.6992-4.4492 0-8.0742 1.5938-10.844 4.8008-2.7695 3.1914-4.1562 8.3672-4.1562 15.531 0 7.5977 1.3555 13.016 4.1016 16.234 2.7305 3.2344 6.2812 4.8438 10.648 4.8438 3.2344 0 6.0039-1.0234 8.3281-3.0781 2.3242-2.043 3.9883-5.2773 5.0078-9.668zm60.633 0 11.754 3.7227c-1.8047 6.5625-4.8008 11.434-8.9961 14.625-4.1836 3.1758-9.5156 4.7734-15.965 4.7734-7.9766 0-14.539-2.7305-19.676-8.1719-5.1367-5.457-7.7109-12.918-7.7109-22.363 0-10.004 2.5898-17.773 7.7539-23.312 5.1641-5.5273 11.949-8.2969 20.375-8.2969 7.3477 0 13.32 2.168 17.91 6.5195 2.7422 2.5625 4.7852 6.2539 6.1562 11.07l-12.02 2.8672c-0.69922-3.1211-2.1836-5.582-4.4492-7.3867-2.2539-1.8047-4.9961-2.6992-8.2148-2.6992-4.4492 0-8.0742 1.5938-10.844 4.8008-2.7695 3.1914-4.1562 8.3672-4.1562 15.531 0 7.5977 1.3555 13.016 4.1016 16.234 2.7305 3.2344 6.2812 4.8438 10.648 4.8438 3.2344 0 6.0039-1.0234 8.3242-3.0781 2.3242-2.043 3.9883-5.2773 5.0078-9.668z"/>
 <path d="m261.96 360.04c0 2.6172 2.1211 4.7344 4.7344 4.7344 2.6172 0 4.7344-2.1211 4.7344-4.7344v-133.22h165.84l43.301 43.301v89.918c0 2.6172 2.1211 4.7344 4.7344 4.7344 2.6172 0 4.7344-2.1211 4.7344-4.7344v-91.879c0-1.2109-0.46094-2.4258-1.3867-3.3477l-46.059-46.059c-0.85938-0.86719-2.0508-1.4062-3.3672-1.4062h-172.54c-2.6172 0-4.7344 2.1211-4.7344 4.7344v137.95zm228.09 125.76c0-2.6172-2.1211-4.7344-4.7344-4.7344-2.6172 0-4.7344 2.1211-4.7344 4.7344v39.379h-209.14v-39.379c0-2.6172-2.1211-4.7344-4.7344-4.7344-2.6172 0-4.7344 2.1211-4.7344 4.7344v44.113c0 2.6172 2.1211 4.7344 4.7344 4.7344h218.62c2.6172 0 4.7344-2.1211 4.7344-4.7344v-44.113z"/>
 <path d="m443.97 222.09c0-2.6172-2.1211-4.7344-4.7344-4.7344-2.6172 0-4.7344 2.1211-4.7344 4.7344v23.039c0 7.6445 3.125 14.586 8.1562 19.617s11.977 8.1562 19.617 8.1562h23.039c2.6172 0 4.7344-2.1211 4.7344-4.7344 0-2.6172-2.1211-4.7344-4.7344-4.7344h-23.039c-5.0273 0-9.6016-2.0625-12.922-5.3789-3.3203-3.3203-5.3789-7.8945-5.3789-12.922v-23.039z"/>
 <path d="m240.55 481.06h270.91v-116.29h-270.91zm275.64 9.4727h-280.38c-2.6172 0-4.7344-2.1211-4.7344-4.7344v-125.76c0-2.6172 2.1211-4.7344 4.7344-4.7344h280.38c2.6172 0 4.7344 2.1211 4.7344 4.7344v125.76c0 2.6172-2.1211 4.7344-4.7344 4.7344z"/>
 <path d="m304.17 271.63c-2.6172 0-4.7344 2.1211-4.7344 4.7344 0 2.6172 2.1211 4.7344 4.7344 4.7344h102.04c2.6172 0 4.7344-2.1211 4.7344-4.7344 0-2.6172-2.1211-4.7344-4.7344-4.7344z"/>
 <path d="m304.17 297.75c-2.6172 0-4.7344 2.1211-4.7344 4.7344 0 2.6172 2.1211 4.7344 4.7344 4.7344h143.67c2.6172 0 4.7344-2.1211 4.7344-4.7344 0-2.6172-2.1211-4.7344-4.7344-4.7344z"/>
 <path d="m304.17 323.88c-2.6172 0-4.7344 2.1211-4.7344 4.7344 0 2.6172 2.1211 4.7344 4.7344 4.7344h143.67c2.6172 0 4.7344-2.1211 4.7344-4.7344 0-2.6172-2.1211-4.7344-4.7344-4.7344z"/>
</svg>
