<?xml version="1.0" encoding="UTF-8"?>
<svg width="752pt" height="752pt" version="1.1" viewBox="0 0 752 752" xmlns="http://www.w3.org/2000/svg">
 <defs>
  <clipPath id="b">
   <path d="m139.21 139.21h423.79v473.58h-423.79z"/>
  </clipPath>
  <clipPath id="a">
   <path d="m222 274h390.79v338.79h-390.79z"/>
  </clipPath>
 </defs>
 <path d="m291.43 333.72h109.94v33.828h-109.94z"/>
 <g clip-path="url(#b)">
  <path d="m181.5 612.79c23.34-0.027344 42.254-18.945 42.281-42.285v-287.53c0-14.012 11.359-25.371 25.371-25.371h312.9v-33.828c0-4.668-3.7852-8.457-8.457-8.457h-253.88c-7.8242-0.027343-15.203-3.6328-20.031-9.793l-49.051-63.051c-1.6133-2.0469-4.0664-3.25-6.6719-3.2656h-76.289c-4.6719 0-8.457 3.7852-8.457 8.457v422.84c0.027343 23.34 18.941 42.258 42.285 42.285z"/>
 </g>
 <g clip-path="url(#a)">
  <path d="m249.15 274.52c-4.668 0-8.457 3.7852-8.457 8.457v287.53c0.003906 15.926-6.4336 31.18-17.852 42.285h347.67c23.34-0.027344 42.258-18.945 42.285-42.285v-287.53c0-4.6719-3.7891-8.457-8.457-8.457zm25.371 59.199c0-9.3438 7.5742-16.914 16.914-16.914h109.94c9.3438 0 16.914 7.5703 16.914 16.914v33.824c0 9.3438-7.5703 16.914-16.914 16.914h-109.94c-9.3398 0-16.914-7.5703-16.914-16.914zm152.22 219.88h-143.77c-4.6719 0-8.457-3.7852-8.457-8.457 0-4.668 3.7852-8.457 8.457-8.457h143.77c4.6719 0 8.457 3.7891 8.457 8.457 0 4.6719-3.7852 8.457-8.457 8.457zm143.77-42.285h-287.53c-4.6719 0-8.457-3.7852-8.457-8.457 0-4.668 3.7852-8.4531 8.457-8.4531h287.53c4.6719 0 8.457 3.7852 8.457 8.4531 0 4.6719-3.7852 8.457-8.457 8.457zm0-42.281h-287.53c-4.6719 0-8.457-3.7891-8.457-8.457 0-4.6719 3.7852-8.457 8.457-8.457h287.53c4.6719 0 8.457 3.7852 8.457 8.457 0 4.668-3.7852 8.457-8.457 8.457zm8.457-50.742c0 4.6719-3.7852 8.457-8.457 8.457h-287.53c-4.6719 0-8.457-3.7852-8.457-8.457s3.7852-8.457 8.457-8.457h287.53c4.6719 0 8.457 3.7852 8.457 8.457z"/>
 </g>
</svg>
